<svg xmlns="http://www.w3.org/2000/svg" viewBox="-7882 -5838 60 29.073">
  <defs>
    <style>
      .cls-1 {
        fill: #000;
      }
    </style>
  </defs>
  <path id="Path_1055" data-name="Path 1055" class="cls-1" d="M33.75,6.8A1.879,1.879,0,0,0,32.086,7.8a7.734,7.734,0,1,0,0,12.984,1.876,1.876,0,0,0,3.539-.867V8.672A1.873,1.873,0,0,0,33.75,6.8ZM27.891,18.281A3.984,3.984,0,1,1,31.875,14.3,4,4,0,0,1,27.891,18.281ZM60,13.125v6.8a1.875,1.875,0,1,1-3.75,0v-6.8a2.813,2.813,0,0,0-5.625,0v6.8a1.875,1.875,0,0,1-3.75,0v-6.8a2.812,2.812,0,1,0-5.625,0v6.8a1.875,1.875,0,0,1-3.75,0V8.672a1.877,1.877,0,0,1,3.293-1.23,6.468,6.468,0,0,1,3.27-.879,6.54,6.54,0,0,1,4.688,1.98,6.493,6.493,0,0,1,4.688-1.98A6.567,6.567,0,0,1,60,13.125ZM6.562,22.031A6.567,6.567,0,0,1,0,15.469a.4.4,0,0,1,.012-.117c0-.035-.012-.082-.012-.117V8.672a1.875,1.875,0,0,1,3.75,0v6.563a.4.4,0,0,1-.012.117c0,.035.012.082.012.117a2.812,2.812,0,1,0,5.625,0,.4.4,0,0,1,.012-.117c0-.035-.012-.082-.012-.117V8.672a1.875,1.875,0,1,1,3.75,0v6.563a.4.4,0,0,1-.012.117c0,.035.012.082.012.117A6.567,6.567,0,0,1,6.562,22.031ZM18.75,21.27c0,.246,0,.48-.012.727a9.281,9.281,0,0,1-.094.949,7.653,7.653,0,0,1-.551,1.828,7.469,7.469,0,0,1-2.3,2.906,7.076,7.076,0,0,1-3.375,1.383,1.409,1.409,0,0,1-.516-2.766l.047-.012a4.068,4.068,0,0,0,3.07-3.773,3.66,3.66,0,0,0-.012-.5c-.012-.246,0-.48-.012-.727V8.672a1.875,1.875,0,1,1,3.75,0v12.6Zm.234-19.16A2.109,2.109,0,1,1,16.875,0,2.116,2.116,0,0,1,18.984,2.109Z" transform="translate(-7882 -5838)"/>
</svg>
